<svg width="24" height="24" viewBox="0 0 24 24" fill="none" xmlns="http://www.w3.org/2000/svg">
<path d="M9.49995 22C8.91662 22 8.33328 21.9417 7.74995 21.825C7.16662 21.7083 6.60828 21.5333 6.07495 21.3C5.89162 21.2167 5.74162 21.0917 5.62495 20.925C5.50828 20.7583 5.44995 20.575 5.44995 20.375C5.44995 20.225 5.48328 20.0833 5.54995 19.95C5.61662 19.8167 5.71662 19.7 5.84995 19.6C7.01662 18.6833 7.91662 17.5583 8.54995 16.225C9.18328 14.8917 9.49995 13.4833 9.49995 12C9.49995 10.5167 9.17895 9.11233 8.53695 7.787C7.89495 6.46167 6.99095 5.33267 5.82495 4.4C5.70828 4.3 5.61662 4.18333 5.54995 4.05C5.48328 3.91667 5.44995 3.775 5.44995 3.625C5.44995 3.425 5.50428 3.24167 5.61295 3.075C5.72162 2.90833 5.86728 2.78333 6.04995 2.7C6.59995 2.46667 7.16662 2.29167 7.74995 2.175C8.33328 2.05833 8.91662 2 9.49995 2C10.8833 2 12.1833 2.26267 13.4 2.788C14.6166 3.31333 15.675 4.02567 16.575 4.925C17.475 5.825 18.1876 6.88333 18.713 8.1C19.2383 9.31667 19.5006 10.6167 19.5 12C19.5 13.3833 19.2373 14.6833 18.712 15.9C18.1866 17.1167 17.4743 18.175 16.575 19.075C15.675 19.975 14.6166 20.6877 13.4 21.213C12.1833 21.7383 10.8833 22.0007 9.49995 22Z" fill="black"/>
</svg>
